<svg width="448" height="276" viewBox="0 0 448 276" fill="none" xmlns="http://www.w3.org/2000/svg">
<path d="M75.6566 149.345C75.6566 176.959 98.0423 199.345 125.657 199.345H317.485C345.099 199.345 367.485 176.959 367.485 149.345V120.198C367.485 92.5834 345.099 70.1977 317.485 70.1977H125.657C98.0424 70.1977 75.6566 92.5834 75.6566 120.198V149.345Z" fill="#004260"/>
<path d="M58.2111 276C85.8253 276 108.211 253.614 108.211 226L108.211 50C108.211 22.3858 85.8253 -7.15256e-06 58.2111 -7.15256e-06H49.9999C22.3857 -7.15256e-06 -7.53403e-05 22.3858 -7.53403e-05 50L-7.53403e-05 226C-7.53403e-05 253.614 22.3857 276 49.9999 276H58.2111Z" fill="#004260"/>
<path d="M398 276C425.614 276 448 253.614 448 226V50C448 22.3858 425.614 -7.15256e-06 398 -7.15256e-06H389.789C362.175 -7.15256e-06 339.789 22.3858 339.789 50V226C339.789 253.614 362.175 276 389.789 276H398Z" fill="#004260"/>
</svg>
